<?xml version="1.0" standalone="no"?><!DOCTYPE svg PUBLIC "-//W3C//DTD SVG 1.1//EN" "http://www.w3.org/Graphics/SVG/1.1/DTD/svg11.dtd"><svg t="1686900875630" class="icon" viewBox="0 0 1024 1024" version="1.1" xmlns="http://www.w3.org/2000/svg" p-id="1943" xmlns:xlink="http://www.w3.org/1999/xlink" width="128" height="128"><path d="M937.722 608.584c-16.886-20.588-42.511-33.748-71.154-33.748H541.591c-50.729 0-92 41.271-92 92v28.744H445.1c-55.14 0-100-44.859-100-100V386.347h137.987c50.729 0 92-41.271 92-92V192.859a92.35 92.35 0 0 0-0.102-4.254c-2.231-48.762-42.596-87.746-91.898-87.746H158.11c-50.729 0-92 41.271-92 92v101.488c0 50.729 41.271 92 92 92H289.1V595.58c0 86.019 69.981 156 156 156h4.491v16.744c0 50.729 41.271 92 92 92h324.978c50.729 0 92-41.271 92-92V666.836c-0.001-22.086-7.826-42.377-20.847-58.252zM158.11 330.347c-19.851 0-36-16.149-36-36V192.859c0-19.851 16.149-36 36-36h324.977c18.411 0 33.628 13.894 35.74 31.746 0.165 1.396 0.26 2.814 0.26 4.254v101.488c0 19.851-16.149 36-36 36H158.11z m744.458 437.977c0 19.851-16.149 36-36 36H541.591c-19.851 0-36-16.149-36-36V666.836c0-19.851 16.149-36 36-36h324.978c19.851 0 36 16.149 36 36v101.488z" p-id="1944" fill="#1296db"></path></svg>